# xmcd CD database file
#
# Track frame offsets:
#	150
#	44277
#	75065
#	111702
#	142570
#	175632
#	202657
#	238270
#	279747
#
# Disc length: 3900 seconds
#
# Revision: 0
# Processed by: cddbd v1.5.2PL0 Copyright (c) Steve Scherf et al.
# Submitted via: CDex 1.51
#
DISCID=6c0f3a09
DTITLE=Ulita Knaus - Cuisa
DYEAR=2001
DGENRE=Jazz
TTITLE0=Cuisa
TTITLE1=It Is You
TTITLE2=Kiss The Earth Goodnight
TTITLE3=Golden Arcs At T.J.'s Border
TTITLE4=Baby Love
TTITLE5=Screen Travelling
TTITLE6=Splash
TTITLE7=Mind Love
TTITLE8=Träumerle
EXTD=YEAR: 2001
EXTT0=
EXTT1=
EXTT2=
EXTT3=
EXTT4=
EXTT5=
EXTT6=
EXTT7=
EXTT8=
PLAYORDER=
